<?xml version="1.0" encoding="utf-8"?>
<!-- Generator: Adobe Illustrator 15.0.0, SVG Export Plug-In . SVG Version: 6.00 Build 0)  -->
<!DOCTYPE svg PUBLIC "-//W3C//DTD SVG 1.1//EN" "http://www.w3.org/Graphics/SVG/1.1/DTD/svg11.dtd">
<svg version="1.1" id="Capa_1" xmlns="http://www.w3.org/2000/svg" xmlns:xlink="http://www.w3.org/1999/xlink" x="0px" y="0px"
	 width="305.405px" height="612px" viewBox="153.297 90 305.405 612" enable-background="new 153.297 90 305.405 612"
	 xml:space="preserve">
<g>
	<path fill="#FFFFFF" d="M433.619,328.868l-12.037-12.037c10.497-4.091,17.959-14.302,17.959-26.23v-38.326
		c0-15.519-12.626-28.145-28.146-28.145h-7.771c-9.269-23.889-27.206-43.922-50.052-55.572c-5.002-2.551-5.711-8.725-3.84-13.24
		c3.352-8.086,4.368-17.02,2.94-25.836c-3.283-20.267-20.502-36.732-40.942-39.151c-13.519-1.596-27.055,2.626-37.147,11.596
		c-10.1,8.975-15.893,21.868-15.893,35.373c0,6.392,1.261,12.596,3.75,18.438c2.146,5.039,0.354,10.584-4.169,12.9
		c-22.831,11.69-40.741,31.694-49.978,55.493h-7.69c-15.519,0-28.145,12.625-28.145,28.145v38.325
		c0,11.927,7.46,22.138,17.958,26.229l-12.039,12.039c-16.173,16.173-25.082,37.677-25.082,60.552V635.53
		c0,36.652,29.818,66.471,66.47,66.471h172.464c36.652,0,66.471-29.818,66.471-66.471V389.423
		C458.703,366.549,449.795,345.042,433.619,328.868z M266.461,184.628c13.017-6.665,18.395-22.111,12.509-35.93
		c-1.535-3.604-2.313-7.439-2.313-11.398c0-8.376,3.594-16.375,9.861-21.943c6.351-5.644,14.562-8.197,23.103-7.185
		c12.644,1.496,23.291,11.667,25.32,24.182c0.895,5.52,0.271,11.083-1.803,16.086c-5.824,14.053-0.549,29.583,12.273,36.123
		c16.82,8.578,30.438,22.643,38.653,39.567H227.857C236.05,207.277,249.649,193.236,266.461,184.628z M190.426,252.275
		c0-5.613,4.566-10.18,10.18-10.18h13.995c0.011,0,0.021,0.002,0.031,0.002c0.009,0,0.019-0.002,0.029-0.002h182.628
		c0.023,0,0.046,0,0.068,0h14.039c5.613,0,10.181,4.566,10.181,10.18v38.326c0,5.613-4.567,10.18-10.181,10.18h-210.79
		c-5.613,0-10.18-4.567-10.18-10.18L190.426,252.275L190.426,252.275z M440.738,635.529c0,26.746-21.759,48.506-48.506,48.506
		H219.769c-26.747,0-48.505-21.76-48.505-48.506v-29.343h38.924c4.961,0,8.983-4.021,8.983-8.982s-4.022-8.982-8.983-8.982h-38.924
		V558.28h19.761c4.961,0,8.982-4.022,8.982-8.983c0-4.96-4.021-8.982-8.982-8.982h-19.761v-29.941h38.924
		c4.961,0,8.983-4.021,8.983-8.982s-4.022-8.982-8.983-8.982h-38.924v-29.941h19.761c4.961,0,8.982-4.022,8.982-8.982
		c0-4.961-4.021-8.983-8.982-8.983h-19.761V414.56h38.924c4.961,0,8.983-4.021,8.983-8.982s-4.022-8.982-8.983-8.982h-38.924v-7.174
		c0-18.075,7.039-35.067,19.819-47.849l22.825-22.825h184.181l22.828,22.825c12.782,12.782,19.821,29.775,19.821,47.852
		L440.738,635.529L440.738,635.529z"/>
	<path fill="#FFFFFF" d="M411.396,415.759c-4.961,0-8.982,4.021-8.982,8.982V549.3c0,4.961,4.021,8.982,8.982,8.982
		s8.982-4.021,8.982-8.982V424.741C420.378,419.78,416.356,415.759,411.396,415.759z"/>
	<path fill="#FFFFFF" d="M393.816,355.97c-3.509,3.508-3.507,9.196,0,12.704c5.542,5.542,8.596,12.911,8.596,20.75
		c0,4.961,4.021,8.982,8.982,8.982c4.96,0,8.982-4.021,8.982-8.982c0-12.636-4.922-24.517-13.857-33.453
		C403.012,352.462,397.324,352.462,393.816,355.97z"/>
	<path fill="#FFFFFF" d="M382.651,280.421h9.581c4.961,0,8.982-4.022,8.982-8.982c0-4.961-4.021-8.982-8.982-8.982h-9.581
		c-4.961,0-8.982,4.021-8.982,8.982C373.669,276.399,377.69,280.421,382.651,280.421z"/>
	<path fill="#FFFFFF" d="M277.256,280.421h67.07c4.961,0,8.982-4.022,8.982-8.982c0-4.961-4.021-8.982-8.982-8.982h-67.069
		c-4.961,0-8.983,4.021-8.983,8.982C268.274,276.399,272.296,280.421,277.256,280.421z"/>
</g>
</svg>
